<?xml version="1.0" standalone="no"?>
<!DOCTYPE svg PUBLIC "-//W3C//DTD SVG 20010904//EN"
 "http://www.w3.org/TR/2001/REC-SVG-20010904/DTD/svg10.dtd">
<svg version="1.0" xmlns="http://www.w3.org/2000/svg"
 width="698.000000pt" height="161.000000pt" viewBox="0 0 698.000000 161.000000"
 preserveAspectRatio="xMidYMid meet">
<metadata>
Created by potrace 1.15, written by Peter Selinger 2001-2017
</metadata>
<g transform="translate(0.000000,161.000000) scale(0.100000,-0.100000)"
fill="#892727" stroke="none">
<path d="M1599 1469 c-18 -18 -20 -29 -15 -65 3 -25 13 -58 21 -74 21 -41 36
-242 34 -489 -1 -204 4 -230 35 -218 13 5 14 41 9 264 -5 231 -3 274 17 416
25 179 23 187 -41 187 -26 0 -46 -7 -60 -21z"/>
<path d="M6402 1454 c-28 -19 -29 -70 -4 -145 23 -67 36 -248 37 -509 l0 -195
24 -3 24 -4 -6 239 c-6 210 -5 259 15 420 18 150 19 184 9 197 -17 20 -70 20
-99 0z"/>
<path d="M260 1453 c-44 -16 -52 -84 -22 -174 12 -34 22 -105 27 -189 10 -149
13 -446 5 -453 -3 -3 -47 1 -98 9 -81 12 -97 12 -122 -1 -49 -25 -43 -33 33
-39 39 -4 98 -9 130 -12 l57 -6 0 -64 c0 -35 5 -65 10 -65 33 -5 35 -2 40 61
l5 65 60 -3 c64 -3 170 -27 298 -68 43 -13 86 -24 96 -24 25 0 45 50 36 90
-11 48 -42 58 -125 36 -55 -14 -80 -15 -127 -7 -32 5 -95 10 -141 10 -46 0
-87 3 -91 5 -5 3 -11 94 -15 203 -5 171 -3 225 17 397 23 193 23 200 5 218
-18 18 -48 22 -78 11z"/>
<path d="M4162 1450 c-47 -19 -48 -59 -7 -210 11 -40 17 -132 22 -333 l6 -278
-24 5 c-13 3 -57 10 -97 16 -60 8 -78 8 -102 -5 -49 -25 -43 -33 33 -39 39 -4
98 -9 129 -12 l57 -6 3 -66 c3 -59 5 -67 23 -67 18 0 20 8 23 67 l3 66 57 -4
c75 -7 122 -17 271 -61 132 -39 150 -38 161 8 9 38 0 69 -27 87 -24 15 -30 15
-93 -2 -53 -13 -80 -15 -131 -8 -35 5 -100 10 -144 11 -43 1 -83 5 -88 10 -4
4 -11 98 -14 207 -4 151 -1 231 11 334 10 74 20 165 23 202 6 66 5 68 -21 78
-32 12 -43 12 -74 0z"/>
<path d="M1290 1191 c-108 -35 -180 -126 -180 -227 0 -17 7 -53 15 -81 36
-120 193 -178 321 -119 51 24 98 71 88 87 -14 23 -56 7 -99 -37 -40 -42 -47
-46 -77 -40 -61 12 -107 52 -140 122 -46 99 -32 170 46 228 20 16 42 21 90 21
86 0 106 -18 106 -92 0 -44 3 -53 18 -53 10 0 26 6 37 13 16 12 17 23 11 83
-4 39 -13 75 -22 84 -17 17 -171 25 -214 11z"/>
<path d="M1948 1189 c-49 -11 -111 -51 -135 -86 -61 -87 -56 -220 10 -292 36
-39 115 -71 177 -71 117 1 203 73 230 193 33 149 -126 294 -282 256z m113 -72
c85 -57 109 -184 52 -275 -37 -60 -71 -78 -119 -62 -109 36 -176 186 -127 287
33 71 127 95 194 50z"/>
<path d="M2592 1187 c-23 -11 -23 -12 -21 -178 2 -123 -1 -171 -10 -183 -16
-19 -102 -37 -140 -30 -53 11 -56 22 -59 216 -4 191 -8 202 -52 158 -18 -18
-20 -33 -20 -189 0 -154 2 -170 20 -194 25 -32 75 -47 155 -47 80 0 130 15
155 47 19 25 20 37 18 216 -2 116 -7 191 -13 193 -5 1 -20 -2 -33 -9z"/>
<path d="M3092 1183 c-23 -8 -46 -22 -50 -31 -4 -10 -5 -97 -2 -194 7 -222 1
-213 143 -213 86 0 108 4 142 22 94 51 129 108 129 208 0 112 -43 174 -145
210 -53 19 -161 18 -217 -2z m159 -28 c85 -30 129 -94 129 -187 0 -118 -74
-187 -188 -175 -81 9 -83 12 -80 197 l3 155 35 12 c46 16 50 16 101 -2z"/>
<path d="M5034 1189 c-53 -15 -126 -71 -148 -113 -39 -78 -31 -195 19 -255 39
-46 119 -81 185 -81 70 0 158 41 178 82 18 38 38 136 29 144 -4 4 -50 11 -104
15 -80 7 -102 6 -120 -7 -13 -8 -23 -21 -23 -29 0 -12 15 -15 73 -15 39 0 78
-4 86 -9 23 -15 4 -80 -35 -119 -30 -30 -39 -34 -67 -28 -117 23 -200 180
-152 286 10 22 33 49 51 61 45 28 120 35 166 16 30 -13 37 -21 40 -49 2 -27 7
-32 23 -30 38 7 49 27 39 74 -6 30 -16 46 -34 55 -29 15 -159 16 -206 2z"/>
<path d="M5653 1190 c-23 -9 -23 -12 -23 -179 0 -141 -3 -172 -16 -185 -19
-20 -57 -30 -112 -31 -34 0 -48 5 -63 24 -17 21 -19 41 -19 197 0 162 -1 174
-18 174 -11 0 -26 -8 -35 -18 -15 -16 -17 -45 -17 -191 0 -95 4 -180 10 -190
15 -28 84 -51 154 -51 86 0 121 8 151 36 l25 23 0 201 c0 110 -3 200 -7 199
-5 0 -18 -4 -30 -9z"/>
<path d="M5772 1184 c-22 -15 -22 -19 -22 -220 0 -181 2 -205 17 -211 10 -4
23 2 35 17 17 21 18 40 16 223 -2 125 -7 202 -13 204 -6 2 -20 -4 -33 -13z"/>
<path d="M6057 1186 c-100 -27 -167 -114 -167 -214 0 -110 33 -165 125 -208
96 -46 207 -25 273 50 87 99 83 223 -10 316 -57 57 -140 78 -221 56z m124 -69
c78 -52 104 -174 57 -267 -31 -61 -75 -86 -123 -70 -116 38 -185 198 -126 293
13 21 35 44 49 52 41 22 104 19 143 -8z"/>
<path d="M492 968 l3 -223 133 -3 c141 -3 172 4 172 39 0 20 -3 21 -99 14
-134 -10 -137 -8 -145 66 -9 95 -4 100 111 98 83 -1 98 1 110 17 7 10 13 21
13 26 0 4 -52 8 -115 8 l-115 0 0 65 0 65 88 1 c109 2 146 9 150 32 3 16 -10
17 -152 17 l-156 0 2 -222z"/>
<path d="M3529 1138 c-6 -230 -5 -366 3 -380 8 -16 25 -18 143 -18 138 0 165
7 165 46 0 13 -16 14 -108 8 -94 -6 -110 -4 -125 10 -22 22 -24 128 -3 145 8
7 49 11 107 10 79 -1 94 1 106 17 7 10 13 21 13 26 0 4 -53 9 -117 10 l-118 3
-3 29 c-2 16 -1 44 2 61 l6 32 103 5 c110 6 137 12 137 34 0 11 -29 14 -155
14 l-155 0 -1 -52z"/>
<path d="M4559 1148 c-62 -86 -195 -386 -177 -403 2 -3 19 0 36 6 25 8 34 20
47 59 15 46 19 49 58 55 23 4 73 5 111 3 l68 -3 20 -53 c23 -62 43 -75 69 -43
18 21 17 24 -8 94 -29 82 -111 252 -143 297 -12 16 -28 30 -36 30 -7 0 -28
-19 -45 -42z m85 -145 c16 -33 26 -68 23 -76 -4 -11 -25 -16 -79 -19 -40 -2
-77 -1 -81 3 -8 6 53 150 75 176 13 16 20 7 62 -84z"/>
<path d="M6607 1183 c-4 -3 -7 -102 -7 -219 0 -184 2 -213 16 -218 9 -3 72 -6
140 -6 111 0 126 2 144 20 38 38 27 43 -79 36 -55 -4 -111 -4 -125 0 -25 6
-26 9 -26 79 0 88 0 88 121 84 70 -3 83 -1 95 16 8 10 14 22 14 27 0 4 -52 8
-115 8 l-116 0 3 63 3 62 106 6 c111 6 129 11 129 35 0 11 -26 14 -148 14 -82
0 -152 -3 -155 -7z"/>
</g>
</svg>
